# xmcd
#
# Track frame offsets:
#	150
#	16836
#	37629
#	49830
#	70023
#	86832
#	102741
#	117942
#	133455
#	148416
#
# Disc length: 2185 seconds
#
# Revision: 0
# Processed by: cddbd v1.5PL3 Copyright (c) Steve Scherf et al.
# Submitted via: dBpowerAMP V4.0
#
DISCID=9008870a
DTITLE=Garre LaGrone  - Out Of The Dark
DYEAR=2004
DGENRE=Christian Country
TTITLE0=Garre LaGrone - Wanna Tell The World 
TTITLE1=Garre LaGrone - Why He Came
TTITLE2=Garre LaGrone - Out Of The Dark
TTITLE3=Garre LaGrone - Home At Last
TTITLE4=Garre LaGrone - That You'd Die For Me
TTITLE5=Garre LaGrone - The Truth Will Set You Free
TTITLE6=Garre LaGrone - Friend Of Mind
TTITLE7=Garre LaGrone - I Just Want To Praise You
TTITLE8=Garre LaGrone - You Are God, Almighty!
TTITLE9=Garre LaGrone - What Am I Gonna Do For You 
EXTD=Christian Country
EXTT0=
EXTT1=
EXTT2=
EXTT3=
EXTT4=
EXTT5=
EXTT6=
EXTT7=
EXTT8=
EXTT9=
PLAYORDER=
